<svg width="287" height="66" viewBox="0 0 287 66" fill="none" xmlns="http://www.w3.org/2000/svg">
<path d="M118.123 13.883C118.123 14.1475 117.99 14.2797 117.725 14.2797C117.461 14.2797 117.328 14.1475 117.328 13.883C117.328 13.6186 117.461 13.4863 117.725 13.4863C117.99 13.4863 118.123 13.7508 118.123 13.883Z" fill="black"/>
<path d="M118.123 15.2072C118.123 15.4717 117.99 15.6039 117.725 15.6039C117.461 15.6039 117.328 15.4717 117.328 15.2072C117.328 14.9428 117.461 14.8105 117.725 14.8105C117.99 14.8105 118.123 14.9428 118.123 15.2072Z" fill="black"/>
<path d="M118.123 16.5295C118.123 16.7939 117.99 16.9262 117.725 16.9262C117.461 16.9262 117.328 16.7939 117.328 16.5295C117.328 16.265 117.461 16.1328 117.725 16.1328C117.99 16.1328 118.123 16.265 118.123 16.5295Z" fill="black"/>
<path d="M118.123 17.7189C118.123 17.9834 117.99 18.1156 117.725 18.1156C117.461 18.1156 117.328 17.9834 117.328 17.7189C117.328 17.4545 117.461 17.3223 117.725 17.3223C117.99 17.3223 118.123 17.5867 118.123 17.7189Z" fill="black"/>
<path d="M118.123 19.0412C118.123 19.3057 117.99 19.4379 117.725 19.4379C117.461 19.4379 117.328 19.3057 117.328 19.0412C117.328 18.7768 117.461 18.6445 117.725 18.6445C117.99 18.6445 118.123 18.7768 118.123 19.0412Z" fill="black"/>
<path d="M118.123 20.3635C118.123 20.6279 117.99 20.7602 117.725 20.7602C117.461 20.7602 117.328 20.6279 117.328 20.3635C117.328 20.099 117.461 19.9668 117.725 19.9668C117.99 19.9668 118.123 20.099 118.123 20.3635Z" fill="black"/>
<path d="M118.123 21.5529C118.123 21.8174 117.99 21.9496 117.725 21.9496C117.461 21.9496 117.328 21.8174 117.328 21.5529C117.328 21.2885 117.461 21.1562 117.725 21.1562C117.99 21.1562 118.123 21.4207 118.123 21.5529Z" fill="black"/>
<path d="M118.123 22.8752C118.123 23.1396 117.99 23.2719 117.725 23.2719C117.461 23.2719 117.328 23.1396 117.328 22.8752C117.328 22.6107 117.461 22.4785 117.725 22.4785C117.99 22.4785 118.123 22.6107 118.123 22.8752Z" fill="black"/>
<path d="M118.123 24.0646C118.123 24.3291 117.99 24.4613 117.725 24.4613C117.461 24.4613 117.328 24.3291 117.328 24.0646C117.328 23.8002 117.461 23.668 117.725 23.668C117.99 23.668 118.123 23.9324 118.123 24.0646Z" fill="black"/>
<path d="M118.123 25.3869C118.123 25.6514 117.99 25.7836 117.725 25.7836C117.461 25.7836 117.328 25.6514 117.328 25.3869C117.328 25.1225 117.461 24.9902 117.725 24.9902C117.99 24.9902 118.123 25.2547 118.123 25.3869Z" fill="black"/>
<path d="M118.123 26.7092C118.123 26.9736 117.99 27.1059 117.725 27.1059C117.461 27.1059 117.328 26.9736 117.328 26.7092C117.328 26.4447 117.461 26.3125 117.725 26.3125C117.99 26.3125 118.123 26.4447 118.123 26.7092Z" fill="black"/>
<path d="M118.123 27.9006C118.123 28.165 117.99 28.2973 117.725 28.2973C117.461 28.2973 117.328 28.165 117.328 27.9006C117.328 27.6361 117.461 27.5039 117.725 27.5039C117.99 27.5039 118.123 27.7684 118.123 27.9006Z" fill="black"/>
<path d="M118.123 29.2229C118.123 29.4873 117.99 29.6195 117.725 29.6195C117.461 29.6195 117.328 29.4873 117.328 29.2229C117.328 28.9584 117.461 28.8262 117.725 28.8262C117.99 28.8262 118.123 28.9584 118.123 29.2229Z" fill="black"/>
<path d="M118.123 30.5432C118.123 30.8076 117.99 30.9398 117.725 30.9398C117.461 30.9398 117.328 30.8076 117.328 30.5432C117.328 30.2787 117.461 30.1465 117.725 30.1465C117.99 30.1465 118.123 30.2787 118.123 30.5432Z" fill="black"/>
<path d="M118.123 31.7346C118.123 31.999 117.99 32.1313 117.725 32.1313C117.461 32.1313 117.328 31.999 117.328 31.7346C117.328 31.4701 117.461 31.3379 117.725 31.3379C117.99 31.3379 118.123 31.6023 118.123 31.7346Z" fill="black"/>
<path d="M118.123 33.0568C118.123 33.3213 117.99 33.4535 117.725 33.4535C117.461 33.4535 117.328 33.3213 117.328 33.0568C117.328 32.7924 117.461 32.6602 117.725 32.6602C117.99 32.6602 118.123 32.7924 118.123 33.0568Z" fill="black"/>
<path d="M118.123 34.2463C118.123 34.5107 117.99 34.643 117.725 34.643C117.461 34.643 117.328 34.5107 117.328 34.2463C117.328 33.9818 117.461 33.8496 117.725 33.8496C117.99 33.8496 118.123 34.1141 118.123 34.2463Z" fill="black"/>
<path d="M118.123 35.5686C118.123 35.833 117.99 35.9652 117.725 35.9652C117.461 35.9652 117.328 35.833 117.328 35.5686C117.328 35.3041 117.461 35.1719 117.725 35.1719C117.99 35.1719 118.123 35.4363 118.123 35.5686Z" fill="black"/>
<path d="M118.123 36.8908C118.123 37.1553 117.99 37.2875 117.725 37.2875C117.461 37.2875 117.328 37.1553 117.328 36.8908C117.328 36.6264 117.461 36.4941 117.725 36.4941C117.99 36.4941 118.123 36.6264 118.123 36.8908Z" fill="black"/>
<path d="M118.123 38.0822C118.123 38.3467 117.99 38.4789 117.725 38.4789C117.461 38.4789 117.328 38.3467 117.328 38.0822C117.328 37.8178 117.461 37.6855 117.725 37.6855C117.99 37.6855 118.123 37.95 118.123 38.0822Z" fill="black"/>
<path d="M118.123 39.4025C118.123 39.667 117.99 39.7992 117.725 39.7992C117.461 39.7992 117.328 39.667 117.328 39.4025C117.328 39.1381 117.461 39.0059 117.725 39.0059C117.99 39.0059 118.123 39.1381 118.123 39.4025Z" fill="black"/>
<path d="M118.123 40.7248C118.123 40.9893 117.99 41.1215 117.725 41.1215C117.461 41.1215 117.328 40.9893 117.328 40.7248C117.328 40.4604 117.461 40.3281 117.725 40.3281C117.99 40.3281 118.123 40.4604 118.123 40.7248Z" fill="black"/>
<path d="M118.123 41.9162C118.123 42.1807 117.99 42.3129 117.725 42.3129C117.461 42.3129 117.328 42.1807 117.328 41.9162C117.328 41.6518 117.461 41.5195 117.725 41.5195C117.99 41.5195 118.123 41.784 118.123 41.9162Z" fill="black"/>
<path d="M118.123 43.2385C118.123 43.5029 117.99 43.6352 117.725 43.6352C117.461 43.6352 117.328 43.5029 117.328 43.2385C117.328 42.974 117.461 42.8418 117.725 42.8418C117.99 42.8418 118.123 42.974 118.123 43.2385Z" fill="black"/>
<path d="M118.123 44.5607C118.123 44.8252 117.99 44.9574 117.725 44.9574C117.461 44.9574 117.328 44.8252 117.328 44.5607C117.328 44.2963 117.461 44.1641 117.725 44.1641C117.99 44.1641 118.123 44.2963 118.123 44.5607Z" fill="black"/>
<path d="M118.123 45.7502C118.123 46.0146 117.99 46.1469 117.725 46.1469C117.461 46.1469 117.328 46.0146 117.328 45.7502C117.328 45.4857 117.461 45.3535 117.725 45.3535C117.99 45.3535 118.123 45.618 118.123 45.7502Z" fill="black"/>
<path d="M118.123 47.0725C118.123 47.3369 117.99 47.4691 117.725 47.4691C117.461 47.4691 117.328 47.3369 117.328 47.0725C117.328 46.808 117.461 46.6758 117.725 46.6758C117.99 46.6758 118.123 46.808 118.123 47.0725Z" fill="black"/>
<path d="M118.123 48.2619C118.123 48.5264 117.99 48.6586 117.725 48.6586C117.461 48.6586 117.328 48.5264 117.328 48.2619C117.328 47.9975 117.461 47.8652 117.725 47.8652C117.99 47.8652 118.123 48.1297 118.123 48.2619Z" fill="black"/>
<path d="M118.123 49.5842C118.123 49.8486 117.99 49.9809 117.725 49.9809C117.461 49.9809 117.328 49.8486 117.328 49.5842C117.328 49.3197 117.461 49.1875 117.725 49.1875C117.99 49.1875 118.123 49.452 118.123 49.5842Z" fill="black"/>
<path d="M118.123 50.9084C118.123 51.1729 117.99 51.3051 117.725 51.3051C117.461 51.3051 117.328 51.1729 117.328 50.9084C117.328 50.6439 117.461 50.5117 117.725 50.5117C117.99 50.5117 118.123 50.6439 118.123 50.9084Z" fill="black"/>
<path d="M118.123 52.0979C118.123 52.3623 117.99 52.4945 117.725 52.4945C117.461 52.4945 117.328 52.3623 117.328 52.0979C117.328 51.8334 117.461 51.7012 117.725 51.7012C117.99 51.7012 118.123 51.9656 118.123 52.0979Z" fill="black"/>
<path d="M118.123 53.4182C118.123 53.6826 117.99 53.8148 117.725 53.8148C117.461 53.8148 117.328 53.6826 117.328 53.4182C117.328 53.1537 117.461 53.0215 117.725 53.0215C117.99 53.0215 118.123 53.1537 118.123 53.4182Z" fill="black"/>
<path d="M118.123 54.7424C118.123 55.0068 117.99 55.1391 117.725 55.1391C117.461 55.1391 117.328 55.0068 117.328 54.7424C117.328 54.4779 117.461 54.3457 117.725 54.3457C117.99 54.3457 118.123 54.4779 118.123 54.7424Z" fill="black"/>
<path d="M118.123 55.9318C118.123 56.1963 117.99 56.3285 117.725 56.3285C117.461 56.3285 117.328 56.1963 117.328 55.9318C117.328 55.6674 117.461 55.5352 117.725 55.5352C117.99 55.5352 118.123 55.7996 118.123 55.9318Z" fill="black"/>
<path d="M118.123 57.1213C118.123 57.3857 117.99 57.518 117.725 57.518C117.461 57.518 117.328 57.3857 117.328 57.1213C117.328 56.8568 117.461 56.7246 117.725 56.7246C117.99 56.7246 118.123 56.9891 118.123 57.1213Z" fill="black"/>
<path d="M118.123 58.4436C118.123 58.708 117.99 58.8402 117.725 58.8402C117.461 58.8402 117.328 58.708 117.328 58.4436C117.328 58.1791 117.461 58.0469 117.725 58.0469C117.99 58.0469 118.123 58.1791 118.123 58.4436Z" fill="black"/>
<path d="M118.123 59.635C118.123 59.8994 117.99 60.0316 117.725 60.0316C117.461 60.0316 117.328 59.8994 117.328 59.635C117.328 59.3705 117.461 59.2383 117.725 59.2383C117.99 59.2383 118.123 59.5027 118.123 59.635Z" fill="black"/>
<path d="M118.123 60.9572C118.123 61.2217 117.99 61.3539 117.725 61.3539C117.461 61.3539 117.328 61.2217 117.328 60.9572C117.328 60.6928 117.461 60.5605 117.725 60.5605C117.99 60.5605 118.123 60.6928 118.123 60.9572Z" fill="black"/>
<path d="M29 34.909C29 34.7768 29.1325 34.6445 29.2649 34.6445H34.6955C34.8279 34.6445 34.9604 34.7768 34.9604 34.909V35.9668C34.9604 36.099 34.8279 36.2313 34.6955 36.2313H30.7219V38.7436H34.0332C34.1657 38.7436 34.2981 38.8758 34.2981 39.008V40.0658C34.2981 40.1981 34.1657 40.3303 34.0332 40.3303H30.7219V43.7682C30.7219 43.9004 30.5894 44.0326 30.457 44.0326H29.2649C29.1325 44.0326 29 43.9004 29 43.7682" fill="black"/>
<path d="M36.5859 34.909C36.5859 34.7768 36.7184 34.6445 36.8508 34.6445H38.1754C38.3078 34.6445 38.4403 34.7768 38.4403 34.909V40.3303C38.4403 41.5203 39.235 42.3137 40.4271 42.3137C41.6192 42.3137 42.4139 41.3881 42.4139 40.3303V34.909C42.4139 34.7768 42.5463 34.6445 42.6788 34.6445H44.0033C44.1358 34.6445 44.2682 34.7768 44.2682 34.909V40.4625C44.2682 42.4459 42.6788 44.1649 40.5595 44.1649C38.4403 44.1649 36.8508 42.5781 36.8508 40.4625" fill="black"/>
<path d="M46.3906 34.7762C46.3906 34.6439 46.5231 34.5117 46.6555 34.5117H47.0529L52.6159 40.4619V34.9084C52.6159 34.7762 52.7484 34.6439 52.8808 34.6439H54.0729C54.2053 34.6439 54.3378 34.7762 54.3378 34.9084V43.8998C54.3378 44.032 54.2053 44.1643 54.0729 44.1643H53.808L48.245 37.9496V43.7676C48.245 43.8998 48.1125 44.032 47.9801 44.032H46.788C46.6555 44.032 46.5231 43.8998 46.5231 43.7676" fill="black"/>
<path d="M56.7188 34.909C56.7188 34.7768 56.8512 34.6445 56.9837 34.6445H60.1625C62.8116 34.6445 64.9308 36.7602 64.9308 39.2725C64.9308 41.917 62.8116 44.0326 60.1625 44.0326H56.9837C56.8512 44.0326 56.7188 43.9004 56.7188 43.7682M60.0301 42.4459C61.752 42.4459 63.0765 41.1236 63.0765 39.4047C63.0765 37.6858 61.752 36.3635 60.0301 36.3635H58.4406V42.4459H60.0301Z" fill="black"/>
<path d="M65.3359 43.6354L69.5744 34.6439C69.5744 34.5117 69.7069 34.5117 69.8393 34.5117H69.9718C70.1042 34.5117 70.1042 34.6439 70.2367 34.6439L74.3427 43.6354C74.4752 43.7676 74.3427 44.032 74.0778 44.032H72.8858C72.6209 44.032 72.6209 43.8998 72.4884 43.7676L71.8261 42.3131H67.8525L67.1903 43.7676C67.1903 43.8998 67.0578 44.032 66.7929 44.032H65.6008C65.4684 44.032 65.3359 43.8998 65.3359 43.6354ZM71.1639 40.8586L69.8393 37.9496L68.5148 40.8586H71.1639Z" fill="black"/>
<path d="M79.6351 34.5117C80.9597 34.5117 82.0193 34.9084 82.9465 35.7018C83.0789 35.834 83.0789 35.9662 82.9465 36.0984L82.1517 36.8918C82.0193 37.024 81.8868 37.024 81.7544 36.8918C81.2246 36.3629 80.4298 36.0984 79.6351 36.0984C77.9132 36.0984 76.5887 37.5529 76.5887 39.2719C76.5887 40.9908 77.9132 42.3131 79.6351 42.3131C80.4298 42.3131 81.0921 42.0486 81.7544 41.5197C81.8868 41.3875 82.0193 41.3875 82.1517 41.5197L82.9465 42.3131C83.0789 42.4453 83.0789 42.5776 82.9465 42.7098C82.0193 43.6354 80.8272 44.032 79.6351 44.032C76.9861 44.032 74.7344 41.9164 74.7344 39.2719C74.7344 36.6273 76.8536 34.5117 79.6351 34.5117Z" fill="black"/>
<path d="M84.6641 34.909C84.6641 34.7768 84.7965 34.6445 84.929 34.6445H86.121C86.2535 34.6445 86.386 34.7768 86.386 34.909V43.7682C86.386 43.9004 86.2535 44.0326 86.121 44.0326H84.929C84.7965 44.0326 84.6641 43.9004 84.6641 43.7682" fill="black"/>
<path d="M93.0164 34.5121C95.6654 34.5121 97.7847 36.6277 97.7847 39.4045C97.7847 42.049 95.6654 44.1646 93.0164 44.1646C90.3673 44.1646 88.2481 42.049 88.2481 39.4045C88.1156 36.6277 90.2349 34.5121 93.0164 34.5121ZM93.0164 42.4457C94.7383 42.4457 96.0628 41.1234 96.0628 39.4045C96.0628 37.6855 94.6058 36.3632 93.0164 36.3632C91.2945 36.3632 89.97 37.8177 89.97 39.4045C89.8375 40.9912 91.2945 42.4457 93.0164 42.4457ZM91.6919 33.5865L91.4269 33.1898C91.4269 33.0576 91.4269 32.9253 91.5594 32.9253L93.8111 31.6031C93.9436 31.4708 94.076 31.4708 94.2085 31.6031L94.6058 32.2642C94.7383 32.3964 94.6058 32.5287 94.4734 32.6609L92.0892 33.7187C91.8243 33.8509 91.8243 33.7187 91.6919 33.5865Z" fill="black"/>
<path d="M99.5078 34.7762C99.5078 34.6439 99.6403 34.5117 99.7727 34.5117H100.17L105.733 40.4619V34.9084C105.733 34.7762 105.866 34.6439 105.998 34.6439H107.19C107.323 34.6439 107.455 34.7762 107.455 34.9084V43.8998C107.455 44.032 107.323 44.1643 107.19 44.1643H106.925L101.362 37.9496V43.7676C101.362 43.8998 101.23 44.032 101.097 44.032H99.9052C99.7727 44.032 99.6403 43.8998 99.6403 43.7676" fill="black"/>
<path d="M32.4438 48.3945C33.3709 48.3945 34.1657 48.659 34.8279 49.3201C34.9604 49.4523 34.9604 49.4523 34.8279 49.5846L34.4306 49.9813C34.2981 50.1135 34.2981 50.1135 34.1657 49.9813C33.7683 49.5846 33.106 49.3201 32.4438 49.3201C31.1192 49.3201 30.0596 50.5102 30.0596 51.8324C30.0596 53.1547 31.1192 54.3447 32.4438 54.3447C33.106 54.3447 33.6359 54.0803 34.1657 53.6836C34.2981 53.5514 34.2981 53.6836 34.4306 53.6836L34.8279 54.0803C34.9604 54.2125 34.8279 54.2125 34.8279 54.3447C34.1657 55.0059 33.3709 55.2703 32.4438 55.2703C30.457 55.2703 29 53.8158 29 51.8324C29 49.9813 30.457 48.3945 32.4438 48.3945Z" fill="black"/>
<path d="M35.2188 54.875L38.1327 48.3959L38.2652 48.2637H38.5301C38.5301 48.2637 38.6625 48.2637 38.6625 48.3959L41.5765 54.875C41.5765 55.0072 41.5765 55.1395 41.444 55.1395H40.7818C40.6493 55.1395 40.6493 55.1395 40.5169 55.0072L39.8546 53.685H36.6757C36.5433 54.0817 36.2784 54.6106 36.1459 55.0072C36.1459 55.0072 36.0135 55.1395 35.881 55.1395H35.2188C35.2188 55.1395 35.2188 55.0072 35.2188 54.875ZM39.5897 52.8916L38.3976 50.2471L37.2055 52.8916H39.5897Z" fill="black"/>
<path d="M41.8434 54.3453L42.2408 53.9486C42.3732 53.8164 42.5057 53.8164 42.5057 53.9486C42.6381 54.0809 42.903 54.3453 43.3004 54.3453C43.8302 54.3453 44.2275 53.9486 44.2275 53.1553V48.6596C44.2275 48.5273 44.36 48.5273 44.36 48.5273H45.0223C45.1547 48.5273 45.1547 48.6596 45.1547 48.6596V53.1553C45.1547 54.4775 44.36 55.2709 43.1679 55.2709C42.3732 55.2709 41.8434 54.742 41.7109 54.6098C41.7109 54.4776 41.7109 54.3453 41.8434 54.3453Z" fill="black"/>
<path d="M45.9528 54.875L48.8667 48.3959L48.9992 48.2637H49.1316C49.1316 48.2637 49.2641 48.2637 49.2641 48.3959L52.1781 54.875C52.1781 55.0072 52.1781 55.1395 52.0456 55.1395H51.3833C51.2509 55.1395 51.2509 55.1395 51.1184 55.0072L50.4562 53.685H47.2773C47.1448 54.0817 46.8799 54.6106 46.7475 55.0072C46.7475 55.0072 46.615 55.1395 46.4826 55.1395H45.8203C45.9528 55.1395 45.9528 55.0072 45.9528 54.875ZM50.3237 52.8916L49.1316 50.2471L47.9396 52.8916H50.3237Z" fill="black"/>
<path d="M55.3516 48.5268C55.3516 48.3945 55.484 48.3945 55.484 48.3945H55.7489L59.9874 53.1547V48.659C59.9874 48.5268 60.1199 48.5268 60.1199 48.5268H60.7821C60.9146 48.5268 60.9146 48.659 60.9146 48.659V55.1381C60.9146 55.2703 60.7821 55.2703 60.7821 55.2703H60.5172L56.2787 50.3779V55.0059C56.2787 55.1381 56.1463 55.1381 56.1463 55.1381H55.484C55.3516 55.1381 55.3516 55.0059 55.3516 55.0059" fill="black"/>
<path d="M61.9762 54.875L64.8902 48.3959L65.0226 48.2637H65.1551C65.1551 48.2637 65.2875 48.2637 65.2875 48.3959L68.2015 54.875C68.2015 55.0072 68.2015 55.1395 68.069 55.1395H67.4068C67.2743 55.1395 67.2743 55.1395 67.1419 55.0072L66.4796 53.685H63.3007C63.1683 54.0817 62.9034 54.6106 62.7709 55.0072C62.7709 55.0072 62.6385 55.1395 62.506 55.1395H61.8438C61.9762 55.1395 61.9762 55.0072 61.9762 54.875ZM66.3472 52.8916L65.1551 50.2471L63.963 52.8916H66.3472Z" fill="black"/>
<path d="M67.9375 48.7918C67.9375 48.6596 67.9375 48.5273 68.07 48.5273H68.7322C68.8647 48.5273 68.8647 48.5273 68.8647 48.6596L70.9839 53.4197L73.1032 48.6596L73.2356 48.5273H73.8979C74.0303 48.5273 74.1628 48.6596 74.0303 48.7918L71.1164 55.2709L70.9839 55.4031H70.8515C70.719 55.4031 70.719 55.4031 70.719 55.2709" fill="black"/>
<path d="M74.0314 54.875L76.9454 48.3959L77.0778 48.2637H77.2103C77.2103 48.2637 77.3427 48.2637 77.3427 48.3959L80.2567 54.875C80.2567 55.0072 80.2567 55.1395 80.1243 55.1395H79.5945C79.462 55.1395 79.462 55.1395 79.3295 55.0072L78.6673 53.685H75.6209C75.4884 54.0817 75.2235 54.6106 75.091 55.0072C75.091 55.0072 74.9586 55.1395 74.8261 55.1395H74.1639C74.0314 55.1395 73.899 55.0072 74.0314 54.875ZM78.4024 52.8916L77.2103 50.2471L76.0182 52.8916H78.4024Z" fill="black"/>
<path d="M81.3125 48.6596C81.3125 48.5273 81.445 48.5273 81.445 48.5273H84.094C85.2861 48.5273 86.2133 49.4529 86.2133 50.5107C86.2133 51.4363 85.6835 52.0975 84.7563 52.4941L86.0808 54.8742C86.2133 55.0065 86.0808 55.1387 85.9484 55.1387H85.1536C85.0212 55.1387 85.0212 55.1387 85.0212 55.0065L83.6967 52.4941H82.2397V54.8742C82.2397 55.0065 82.1072 55.0065 82.1072 55.0065H81.445C81.3125 55.0065 81.3125 54.8742 81.3125 54.8742M84.094 51.7008C84.7563 51.7008 85.2861 51.1719 85.2861 50.5107C85.2861 49.8496 84.7563 49.3207 84.094 49.3207H82.3721V51.7008H84.094Z" fill="black"/>
<path d="M87.6719 48.6596C87.6719 48.5273 87.8043 48.5273 87.8043 48.5273H90.4534C91.6455 48.5273 92.5726 49.4529 92.5726 50.5107C92.5726 51.4363 92.0428 52.0975 91.1157 52.4941L92.4402 54.8742C92.5726 55.0065 92.4402 55.1387 92.3077 55.1387H91.513C91.3806 55.1387 91.3806 55.1387 91.3806 55.0065L90.056 52.4941H88.599V54.8742C88.599 55.0065 88.4666 55.0065 88.4666 55.0065H87.8043C87.6719 55.0065 87.6719 54.8742 87.6719 54.8742M90.4534 51.7008C91.1157 51.7008 91.6455 51.1719 91.6455 50.5107C91.6455 49.8496 91.1157 49.3207 90.4534 49.3207H88.7315V51.7008H90.4534Z" fill="black"/>
<path d="M93.234 54.875L96.148 48.3959L96.2804 48.2637H96.4129C96.4129 48.2637 96.5453 48.2637 96.5453 48.3959L99.4593 54.875C99.4593 55.0072 99.4593 55.1395 99.3269 55.1395H98.6646C98.5321 55.1395 98.5321 55.1395 98.3997 55.0072L97.7374 53.685H94.5585C94.4261 54.0817 94.1612 54.6106 94.0287 55.0072C94.0287 55.0072 93.8963 55.1395 93.7638 55.1395H93.1016C93.234 55.1395 93.234 55.0072 93.234 54.875ZM97.605 52.8916L96.4129 50.2471L95.2208 52.8916H97.605Z" fill="black"/>
<mask id="mask0_444_2176" style="mask-type:luminance" maskUnits="userSpaceOnUse" x="3" y="0" width="12" height="21">
<path d="M9.95186 0C8.62733 0.132227 7.30279 0.793361 6.50807 1.85117C5.18354 3.57012 5.71336 5.4213 6.24317 7.66915C6.64053 8.99142 7.03789 10.4459 7.03789 12.0326C7.03789 13.4871 6.77298 14.8094 6.24317 16.2639C5.71336 17.5862 4.91864 18.9084 3.72656 20.0985C3.85902 20.0985 3.99147 19.9662 4.12393 19.9662C9.5545 17.7184 13.6605 12.826 14.8526 7.00802C15.25 4.23126 14.5877 2.11563 12.9983 0.925588C12.2036 0.264454 11.2764 0 10.2168 0C10.2168 0 10.0843 0 9.95186 0Z" fill="white"/>
</mask>
<g mask="url(#mask0_444_2176)">
<path d="M12.7263 -4.75977L-4.625 4.49611L6.23614 24.859L23.5875 15.6032L12.7263 -4.75977Z" fill="url(#paint0_linear_444_2176)"/>
</g>
<mask id="mask1_444_2176" style="mask-type:luminance" maskUnits="userSpaceOnUse" x="0" y="19" width="17" height="37">
<path d="M0.257286 46.4102C1.052 50.9059 3.3037 53.9471 6.48257 54.8727C8.20446 55.4016 9.92635 55.4016 11.6482 54.7405C13.7675 53.9471 15.3569 52.2282 16.0192 49.9803C17.0788 46.5424 15.3569 44.0301 13.2377 40.8567C12.0456 39.0055 10.5886 36.8899 9.66144 34.3776C8.86673 32.1297 8.46937 29.8819 8.73428 27.3695C8.86673 24.9895 9.529 22.6094 10.5886 19.9648C2.7739 26.5762 -1.06724 36.4932 0.257286 46.4102Z" fill="white"/>
</mask>
<g mask="url(#mask1_444_2176)">
<path d="M8.73808 64.5251L34.6989 36.3608L7.2811 11.1055L-18.6797 39.1375L8.73808 64.5251Z" fill="url(#paint1_linear_444_2176)"/>
</g>
<mask id="mask2_444_2176" style="mask-type:luminance" maskUnits="userSpaceOnUse" x="8" y="16" width="19" height="19">
<path d="M14.9738 17.324C14.0466 17.7207 11.9274 18.7785 10.4704 20.1008C7.82135 25.9188 8.35116 30.8112 9.54324 34.1168C12.7221 32.3979 15.1063 32.3979 17.0931 32.0012C18.8149 31.7367 20.5368 31.4723 21.9938 30.8112C23.7157 30.15 24.7753 29.0922 25.57 27.6377C27.5568 23.9354 26.2323 19.3074 22.5236 17.324C21.464 16.6629 20.1395 16.3984 18.9474 16.3984C17.6229 16.5307 16.2983 16.7951 14.9738 17.324Z" fill="white"/>
</mask>
<g mask="url(#mask2_444_2176)">
<path d="M10.6009 40.8598L33.6477 31.6039L24.7734 9.6543L1.72656 18.9102L10.6009 40.8598Z" fill="url(#paint2_linear_444_2176)"/>
</g>
<path d="M168.473 41.3395V41.1151C168.473 41.0971 168.401 39.4091 168.139 38.6578C167.563 37.0117 165.954 31.5435 169.34 30.3373C170.403 29.9602 171.34 29.9931 172.132 30.436C173.333 31.1184 173.834 32.5521 173.979 33.0699C174.636 33.01 176.774 32.9142 177.596 34.1444C177.768 34.3902 177.887 34.6695 177.943 34.964C177.999 35.2585 177.993 35.5616 177.923 35.8534C177.56 37.4397 175.591 38.8075 174.447 39.4809C171.925 40.9774 168.836 41.3036 168.704 41.3156L168.473 41.3395ZM170.715 30.5019C170.293 30.5088 169.874 30.5878 169.478 30.7353C166.455 31.8128 167.977 36.9638 168.533 38.5171C168.732 39.2857 168.848 40.0734 168.878 40.8666C169.632 40.7619 172.18 40.3339 174.225 39.1157C175.098 38.6009 177.161 37.2451 177.5 35.7576C177.558 35.5227 177.564 35.2781 177.519 35.0405C177.473 34.8029 177.377 34.5779 177.236 34.3808C176.428 33.1836 173.864 33.5099 173.84 33.5128L173.642 33.5398L173.6 33.3452C173.6 33.3273 173.21 31.5285 171.913 30.8042C171.547 30.601 171.134 30.4968 170.715 30.5019Z" fill="#C7001D"/>
<path d="M169.641 40.6748C169.601 40.6764 169.562 40.6692 169.525 40.6537C169.489 40.6382 169.456 40.6147 169.43 40.585C169.378 40.5295 169.349 40.4561 169.349 40.38C169.349 40.3038 169.378 40.2304 169.43 40.1749C169.761 39.6512 171.745 38.427 174.513 36.7509L175.275 36.29C174.675 36.5684 174.039 36.8886 173.399 37.1879C169.544 39.0675 169.385 39.0825 169.196 38.849C169.155 38.7951 169.135 38.7281 169.139 38.6605C169.144 38.5929 169.172 38.5291 169.22 38.4809C169.52 38.1008 171.045 37.2837 173.342 36.0596L173.894 35.7603C173.123 36.1074 172.288 36.4906 171.598 36.8108C168.32 38.3253 168.314 38.3073 168.145 38.1128L168.031 37.9721L168.145 37.8045C168.29 37.6099 169.115 37.146 171.688 35.7573L173.189 34.9402C171.607 35.6076 169.487 36.5474 167.953 37.2448L167.725 36.8407L171.577 34.2578L167.674 35.9249L167.464 35.5088L171.027 33.4317L167.536 34.7187L167.338 34.2997L169.701 32.9528L167.647 33.7729L167.44 33.3539L168.275 32.86L167.776 33.0875L167.566 32.6685L167.938 32.465L167.779 32.1657L168.154 31.9532L168.025 31.7077L168.326 31.5162C168.311 31.4991 168.299 31.48 168.29 31.4593C168.266 31.4041 168.265 31.3419 168.287 31.286C168.309 31.2301 168.352 31.1849 168.407 31.16L170.334 30.2891L170.496 30.5884L170.925 30.3938L171.082 30.6931L171.538 30.4926L171.694 30.7919L171.994 30.6572L172.21 31.0702L170.25 32.2315L172.652 31.2768L172.853 31.6958L170.031 33.303L173.378 32.0699L173.576 32.4919L170.946 34.0243L173.663 32.866L173.885 33.2731L170.259 35.7184C175.155 33.5454 175.363 33.6233 175.477 33.6801L175.612 33.737V33.8956C175.612 34.1201 175.627 34.171 172.105 36.0715C174.378 35.027 175.879 34.3595 176.263 34.3536C176.329 34.3425 176.396 34.3563 176.451 34.3924C176.507 34.4284 176.547 34.484 176.563 34.5481C176.629 34.8115 176.641 34.8474 173.561 36.4786C172.856 36.8527 172.036 37.2867 171.319 37.6758C171.919 37.3765 172.586 37.0772 173.195 36.7779C174.903 35.9428 176.518 35.1557 177.14 34.9821C177.233 34.9551 177.479 34.8803 177.575 35.0958C177.692 35.3622 177.698 35.3772 174.756 37.158C173.405 37.9781 171.547 39.1004 170.532 39.8277C171.024 39.5763 171.643 39.2291 172.222 38.9298C174.558 37.6518 176.263 36.7479 176.981 36.7479C177.043 36.7479 177.102 36.7725 177.146 36.8163C177.19 36.8601 177.215 36.9195 177.215 36.9814C177.215 37.0433 177.19 37.1027 177.146 37.1465C177.102 37.1903 177.043 37.2149 176.981 37.2149C176.329 37.2149 174.087 38.442 172.447 39.3399C170.574 40.3485 169.935 40.6748 169.641 40.6748Z" fill="#C7001D"/>
<path d="M155.261 26.4582L155.201 26.2397C155.201 26.2397 154.748 24.5936 154.324 23.9201C153.394 22.4446 150.596 17.4762 153.631 15.5397C154.58 14.9411 155.501 14.7586 156.372 15.013C157.708 15.408 158.509 16.698 158.773 17.1709C159.398 16.9644 161.475 16.3927 162.538 17.4074C162.761 17.6085 162.939 17.8543 163.06 18.1287C163.181 18.4031 163.243 18.6999 163.241 18.9996C163.241 20.6278 161.631 22.3997 160.671 23.3126C158.545 25.3268 155.609 26.3385 155.483 26.3834L155.261 26.4582ZM155.588 15.3302C154.971 15.3519 154.373 15.5492 153.865 15.8989C151.163 17.6229 153.814 22.3009 154.691 23.6957C155.059 24.3994 155.348 25.1411 155.555 25.9075C156.267 25.6351 158.638 24.6534 160.359 23.0073C161.091 22.3129 162.799 20.5291 162.796 19.0056C162.799 18.7632 162.75 18.5229 162.652 18.3009C162.554 18.079 162.41 17.8804 162.229 17.7186C161.169 16.722 158.749 17.6229 158.725 17.6318L158.539 17.7037L158.455 17.5241C158.455 17.5061 157.666 15.842 156.24 15.429C156.028 15.3657 155.809 15.3324 155.588 15.3302Z" fill="#C7001D"/>
<path d="M156.179 25.5605C156.124 25.5583 156.069 25.5407 156.023 25.5096C155.96 25.4669 155.915 25.4015 155.898 25.3269C155.881 25.2524 155.894 25.1742 155.933 25.1086C156.14 24.51 157.797 22.8878 160.118 20.637L160.77 20.0175C160.259 20.4215 159.698 20.8735 159.142 21.3224C155.807 24.0161 155.657 24.064 155.42 23.8784C155.367 23.8355 155.331 23.7746 155.32 23.7073C155.309 23.6399 155.323 23.5709 155.36 23.5133C155.567 23.0763 156.861 21.93 158.833 20.221L159.299 19.8199C158.623 20.3287 157.897 20.8884 157.296 21.3553C154.438 23.5612 154.432 23.5552 154.225 23.3966L154.081 23.2828L154.165 23.1122C154.264 22.8908 154.963 22.2562 157.167 20.3258C157.584 19.9606 158.035 19.5655 158.455 19.1914C157.062 20.1971 155.21 21.5858 153.868 22.6094L153.567 22.2652L156.705 18.8622L153.264 21.3583L152.964 21.0171L155.966 18.1947L152.85 20.23L152.55 19.8618L154.579 18.0241L152.76 19.2812L152.46 18.922L153.162 18.2516L152.73 18.5838L152.43 18.2247L152.745 17.9433L152.52 17.671L152.841 17.3717L152.655 17.1592L152.916 16.9048C152.897 16.893 152.881 16.8778 152.868 16.8599C152.849 16.8354 152.835 16.8074 152.827 16.7775C152.819 16.7476 152.817 16.7165 152.821 16.6859C152.826 16.6552 152.836 16.6257 152.852 16.5991C152.867 16.5724 152.888 16.5492 152.913 16.5306L154.597 15.2526L154.819 15.507L155.195 15.2077L155.42 15.4741L155.819 15.1748L156.041 15.4442L156.299 15.2466L156.6 15.6028L154.951 17.1711L157.071 15.7046L157.371 16.0697L154.969 18.2666L157.945 16.3211L158.245 16.6863L156.026 18.7814L158.428 17.0454L158.728 17.3926L155.726 20.5861C160.019 17.3717 160.253 17.4255 160.364 17.4255L160.508 17.4525L160.559 17.6021C160.619 17.8176 160.634 17.8655 157.629 20.5053C159.608 18.9819 160.932 17.9942 161.298 17.9044C161.358 17.8841 161.423 17.8856 161.482 17.9086C161.54 17.9316 161.589 17.9747 161.619 18.0301C161.745 18.2696 161.763 18.3055 159.13 20.5802C158.53 21.1009 157.824 21.7085 157.218 22.2532C157.74 21.8402 158.314 21.3763 158.839 20.9513C160.319 19.7541 161.715 18.6317 162.28 18.3145C162.364 18.2666 162.58 18.1409 162.73 18.3145C162.904 18.5479 162.916 18.5629 160.445 20.9543C159.314 22.0527 157.743 23.5642 156.93 24.498C157.353 24.1448 157.879 23.6749 158.374 23.2379C160.361 21.4721 161.823 20.209 162.52 20.0504C162.55 20.0433 162.58 20.0422 162.611 20.0471C162.641 20.052 162.67 20.0629 162.696 20.079C162.722 20.0952 162.744 20.1163 162.762 20.1412C162.78 20.1661 162.792 20.1942 162.799 20.224C162.806 20.2539 162.807 20.2848 162.802 20.3152C162.797 20.3455 162.787 20.3745 162.77 20.4007C162.754 20.4268 162.733 20.4495 162.708 20.4675C162.683 20.4854 162.655 20.4983 162.625 20.5053C161.991 20.649 160.079 22.346 158.683 23.5851C156.945 25.1505 156.447 25.5605 156.179 25.5605Z" fill="#C7001D"/>
<path d="M144.177 50.8124L143.985 50.6927C142.633 49.8464 141.457 48.7491 140.521 47.4603C139.92 46.5983 138.993 44.9581 139.275 43.6951C139.325 43.4598 139.425 43.2377 139.567 43.0433C139.709 42.8489 139.891 42.6865 140.1 42.5667C141.094 41.9681 142.55 42.7134 143.036 42.9947C143.337 42.6535 144.165 41.8364 145.237 41.7616C145.621 41.7472 146.004 41.8181 146.358 41.9693C146.711 42.1204 147.027 42.348 147.281 42.6355C149.308 44.6528 146.306 48.0229 145.339 48.9957C144.932 49.4965 144.578 50.0382 144.282 50.6119L144.177 50.8124ZM140.992 42.7642C140.757 42.7567 140.524 42.8137 140.32 42.9289C140.16 43.0195 140.021 43.143 139.912 43.291C139.803 43.4391 139.727 43.6084 139.689 43.7879C139.434 44.9372 140.434 46.5743 140.89 47.2238C141.748 48.4021 142.813 49.4161 144.033 50.2168C144.316 49.6763 144.657 49.1685 145.051 48.7024C145.951 47.8045 148.743 44.6828 146.996 42.9408C146.784 42.6982 146.52 42.5051 146.224 42.3753C145.929 42.2455 145.608 42.1821 145.285 42.1896C144.144 42.2674 143.277 43.3868 143.268 43.4077L143.148 43.5634L142.967 43.4646C142.967 43.4646 141.902 42.7642 140.992 42.7642Z" fill="#C7001D"/>
<path d="M143.657 49.9622C143.429 49.9622 143.147 49.609 141.994 48.0168C141.139 46.8405 139.968 45.2273 139.518 45.0238C139.461 44.9972 139.418 44.9494 139.397 44.8911C139.377 44.8327 139.38 44.7684 139.406 44.7125C139.433 44.6565 139.481 44.6134 139.54 44.5926C139.598 44.5719 139.663 44.5751 139.719 44.6017C140.235 44.8442 141.145 46.0623 142.373 47.7534C142.475 47.891 142.58 48.0377 142.673 48.1844C142.186 47.3882 141.556 46.4574 141.076 45.7062C139.575 43.4255 139.575 43.4195 139.785 43.2369C139.899 43.1382 140.037 43.1621 140.196 43.3028C140.785 43.9159 141.339 44.5614 141.856 45.2363C140.502 43.4165 140.529 43.3866 140.682 43.201C140.723 43.1559 140.778 43.126 140.838 43.1162C140.898 43.1064 140.96 43.1173 141.013 43.1471C141.217 43.2489 141.712 43.7846 142.472 44.6736C141.454 43.2639 141.478 43.216 141.571 43.0633L141.64 42.9346H141.796C141.898 42.9346 142.072 42.9346 144.468 45.7062L143.012 43.2519L143.39 42.9795L144.387 44.1019L143.486 42.8059L143.847 42.5066L145.348 44.054L144.258 42.4797L144.621 42.1804L145.555 43.1831L144.918 42.2433L145.294 41.9619L145.456 42.1565L145.672 41.9859L145.927 42.2852L146.143 42.1205L146.383 42.4019L146.597 42.2433L147.668 43.5033C147.708 43.5505 147.728 43.6113 147.723 43.6728C147.719 43.7343 147.691 43.7916 147.644 43.8325L147.773 44.0271L147.596 44.1588L147.791 44.4341L147.572 44.6017L147.764 44.8711L147.44 45.1225L147.626 45.4009L147.26 45.7002L146.566 44.9609L147.368 46.1072L147.008 46.4065L145.372 44.7394L146.873 46.9243L146.506 47.2236L144.654 45.1285L146.236 47.7983L145.855 48.0676C145.219 47.3164 144.399 46.3586 143.648 45.5056L143.796 45.7062C145.18 47.5858 145.597 48.1634 145.624 48.358L145.66 48.5375L145.495 48.6333C145.267 48.7411 145.264 48.7411 143.426 46.5382L143.234 46.3048C144.051 47.4152 144.57 48.1664 144.639 48.4657C144.66 48.5271 144.658 48.5942 144.634 48.6543C144.609 48.7144 144.563 48.7634 144.504 48.7919C144.258 48.9117 144.204 48.9326 142.027 46.197L141.667 45.751C142.961 47.7115 143.868 49.1272 143.925 49.5941C143.941 49.662 143.934 49.7336 143.903 49.7965C143.872 49.8593 143.82 49.9095 143.757 49.9383C143.725 49.9522 143.692 49.9603 143.657 49.9622Z" fill="#C7001D"/>
<path d="M149.743 45.2334L150.442 30.2953L146.26 30.6245L146.17 30.439C146.119 30.3252 140.995 19.1075 151.139 13.6243C157.167 10.3679 162.427 12.6366 164.495 14.9532C165.396 15.9614 165.96 17.2238 166.11 18.5658C166.272 19.9755 165.51 41.6118 165.486 42.5247V42.7731L149.743 45.2334ZM151.073 29.6698L150.376 44.542L164.894 42.2673C165.168 34.4227 165.639 19.724 165.513 18.6436C165.38 17.4204 164.866 16.2693 164.045 15.3513C162.105 13.1754 157.14 11.0593 151.436 14.1541C147.395 16.339 145.372 19.6881 145.432 24.1088C145.47 26.1277 145.877 28.1227 146.633 29.996L151.073 29.6698Z" fill="black"/>
<path d="M148.608 23.7345C148.992 23.7345 149.304 23.4236 149.304 23.0401C149.304 22.6566 148.992 22.3457 148.608 22.3457C148.223 22.3457 147.911 22.6566 147.911 23.0401C147.911 23.4236 148.223 23.7345 148.608 23.7345Z" fill="black"/>
<path d="M150.781 47.6968C151.095 47.6968 151.349 47.4435 151.349 47.1311C151.349 46.8187 151.095 46.5654 150.781 46.5654C150.468 46.5654 150.214 46.8187 150.214 47.1311C150.214 47.4435 150.468 47.6968 150.781 47.6968Z" fill="black"/>
<path d="M163.475 33.9077C163.788 33.9077 164.042 33.6545 164.042 33.342C164.042 33.0296 163.788 32.7764 163.475 32.7764C163.161 32.7764 162.907 33.0296 162.907 33.342C162.907 33.6545 163.161 33.9077 163.475 33.9077Z" fill="black"/>
<path d="M136.885 65.0141L136.846 64.7537C135.045 53.1708 136.678 45.2992 136.693 45.2304C137.894 40.8486 140.812 38.541 145.099 38.541C147.972 38.541 150.202 39.4748 151.703 41.3155C155.159 45.5057 153.748 52.8685 153.685 53.1798L153.637 53.4222H148.701L150.908 64.61L136.885 65.0141ZM145.108 39.1246C141.055 39.1246 138.422 41.2197 137.275 45.3561C137.275 45.4159 135.672 53.063 137.398 64.3855L150.181 64.0174L147.972 52.8086H153.159C153.37 51.5037 154.198 45.2453 151.259 41.6777C149.863 39.9836 147.792 39.1246 145.108 39.1246Z" fill="black"/>
<path d="M171.94 62.2662L155.065 51.8595L162.168 39.9174L158.053 37.3225L158.128 37.101C158.17 36.9723 162.505 24.3539 173.288 27.3289C179.518 29.0469 181.013 34.0482 181.175 37.9421C181.273 40.904 180.655 43.846 179.373 46.52L171.94 62.2662ZM155.879 51.659L171.682 61.4042L178.833 46.2656C180.074 43.6785 180.674 40.8323 180.583 37.966C180.43 34.2727 179.016 29.5288 173.138 27.9065C168.854 26.7093 165.131 27.9275 162.069 31.4981C160.674 33.167 159.564 35.054 158.785 37.0831L162.988 39.7349L155.879 51.659Z" fill="black"/>
<path d="M198.242 43.2277C198.242 41.8569 198.242 41.6803 197.291 41.0488L196.972 40.8363C196.9 40.7447 196.864 40.63 196.871 40.5138C196.877 40.3975 196.926 40.2877 197.008 40.2048C198.264 39.7322 199.478 39.1566 200.638 38.4838C200.815 38.4838 200.956 38.5526 200.992 38.6933C200.92 39.9234 200.851 41.6115 200.851 43.0511V49.3783C200.851 51.9074 200.92 52.2606 202.19 52.4342L202.931 52.5389C202.986 52.601 203.027 52.6732 203.053 52.7514C203.078 52.8295 203.088 52.912 203.082 52.994C203.075 53.076 203.052 53.1559 203.014 53.2288C202.975 53.3018 202.923 53.3664 202.859 53.4189C201.803 53.347 200.779 53.3141 199.557 53.3141C198.335 53.3141 197.23 53.347 196.255 53.4189C196.006 53.3141 195.937 52.7155 196.183 52.5389L196.924 52.4342C198.227 52.2606 198.263 51.9074 198.263 49.3783L198.242 43.2277ZM201.133 31.8394C201.133 33.0695 200.251 33.6352 199.299 33.6352C199.065 33.6483 198.831 33.6134 198.612 33.5326C198.392 33.4517 198.192 33.3267 198.023 33.1652C197.854 33.0038 197.72 32.8094 197.63 32.5942C197.539 32.3789 197.494 32.1475 197.498 31.9142C197.491 31.6648 197.536 31.4167 197.63 31.1854C197.724 30.9541 197.865 30.7445 198.043 30.5696C198.222 30.3948 198.434 30.2584 198.668 30.1689C198.901 30.0794 199.151 30.0388 199.401 30.0495C199.635 30.0455 199.867 30.0896 200.083 30.1789C200.3 30.2682 200.495 30.401 200.658 30.5689C200.82 30.7368 200.946 30.9362 201.028 31.1548C201.11 31.3734 201.146 31.6064 201.133 31.8394Z" fill="black"/>
<path d="M213.505 39.6061C213.861 40.5139 214.053 41.4778 214.069 42.4525C214.021 42.5153 213.961 42.568 213.892 42.6074C213.823 42.6469 213.747 42.6724 213.669 42.6824C213.59 42.6924 213.51 42.6868 213.433 42.6658C213.357 42.6448 213.285 42.609 213.223 42.5602C212.622 41.0128 211.566 39.9922 210.122 39.9922C208.747 39.9922 207.864 40.8722 207.864 42.1382C207.864 43.5778 209.344 44.35 210.566 45.0534C212.436 46.1099 214.168 47.3041 214.168 49.8003C214.168 52.47 211.701 53.8049 209.092 53.8049C207.435 53.8049 206.201 53.4547 205.321 52.7514C205.039 52.0839 204.826 50.357 204.898 49.2017C205.004 49.0957 205.146 49.0332 205.296 49.0266C205.446 49.0199 205.593 49.0696 205.708 49.1658C206.309 51.0992 207.435 52.7873 209.446 52.7873C210.713 52.7873 211.806 52.048 211.806 50.5366C211.806 48.9203 210.398 48.0404 209.104 47.3041C207.059 46.1428 205.615 44.9097 205.615 42.9822C205.615 40.4142 207.717 38.9746 210.419 38.9746C211.884 38.9746 213.187 39.3248 213.505 39.6061Z" fill="black"/>
<path d="M221.575 40.9441C220.974 40.9441 220.941 41.0489 220.941 41.7851V48.3697C220.941 50.408 221.187 52.2606 223.514 52.2606C223.839 52.2594 224.162 52.1995 224.466 52.084C224.784 51.9793 225.243 51.5902 225.348 51.5902C225.63 51.5902 225.772 51.9793 225.7 52.1888C225.234 52.7064 224.663 53.1185 224.025 53.3973C223.386 53.6761 222.695 53.8151 221.998 53.805C218.969 53.805 218.332 52.12 218.332 50.0099V41.9677C218.332 41.0189 218.296 40.9501 217.594 40.9501H216.609C216.51 40.857 216.446 40.7331 216.427 40.5988C216.408 40.4645 216.435 40.3277 216.504 40.2108C217.315 39.986 218.079 39.6169 218.759 39.1214C219.352 38.5067 219.851 37.8077 220.239 37.0472C220.416 36.9784 220.839 36.9784 220.98 37.2238V38.8041C220.98 39.4386 221.016 39.4716 221.614 39.4716H225.516C225.937 39.7888 225.868 40.7376 225.549 40.9501L221.575 40.9441Z" fill="black"/>
<path d="M230.634 44.3178C229.718 44.3178 229.682 44.3867 229.682 45.2666C229.682 48.8163 231.763 51.8512 235.534 51.8512C236.698 51.8512 237.683 51.498 238.776 50.1272C238.846 50.1004 238.921 50.0907 238.995 50.0988C239.07 50.107 239.141 50.1328 239.203 50.1742C239.266 50.2155 239.317 50.2711 239.354 50.3364C239.39 50.4017 239.41 50.4747 239.412 50.5493C238.247 52.9437 235.711 53.8176 233.876 53.8176C231.586 53.8176 229.787 52.8329 228.773 51.498C227.79 50.1789 227.27 48.5739 227.293 46.9307C227.293 42.6058 230.148 38.9873 234.381 38.9873C237.41 38.9873 239.385 41.0614 239.385 43.1775C239.404 43.4893 239.356 43.8015 239.244 44.0934C239.139 44.3029 238.644 44.3388 237.164 44.3388L230.634 44.3178ZM232.82 43.2643C235.428 43.2643 236.203 43.1236 236.485 42.9111C236.59 42.8423 236.698 42.7016 236.698 42.2437C236.698 41.259 236.026 40.0289 233.981 40.0289C231.937 40.0289 230.106 41.9264 230.079 43.0877C230.079 43.1566 230.079 43.2643 230.325 43.2643H232.82Z" fill="black"/>
<path d="M243.466 43.2283C243.466 41.8575 243.466 41.6809 242.511 41.0494L242.211 40.8369C242.139 40.7452 242.103 40.6306 242.109 40.5143C242.116 40.3981 242.165 40.2883 242.247 40.2053C243.474 39.7178 244.664 39.1426 245.807 38.4844C245.981 38.5173 246.09 38.5891 246.09 38.7298V40.771C246.09 40.9476 246.123 41.0524 246.195 41.0883C247.428 40.0677 248.767 38.9782 250.07 38.9782C250.953 38.9782 251.658 39.5409 251.658 40.3849C251.666 40.5905 251.633 40.7955 251.561 40.9882C251.488 41.1808 251.379 41.3574 251.238 41.5076C251.097 41.6578 250.928 41.7788 250.74 41.8635C250.552 41.9482 250.349 41.995 250.142 42.0011C249.864 42.0006 249.593 41.9149 249.365 41.7557C248.915 41.4213 248.376 41.2257 247.816 41.193C247.563 41.1986 247.315 41.2656 247.094 41.3881C246.872 41.5107 246.684 41.6851 246.546 41.8964C246.195 42.3872 246.09 43.4079 246.09 44.5901V49.3789C246.09 51.908 246.159 52.33 247.497 52.4347L248.767 52.5395C249.014 52.7161 248.945 53.3147 248.695 53.4194C247.038 53.3476 246.017 53.3147 244.793 53.3147C243.568 53.3147 242.466 53.3476 241.55 53.4194C241.487 53.367 241.434 53.3024 241.396 53.2294C241.358 53.1564 241.335 53.0766 241.328 52.9946C241.322 52.9126 241.331 52.8301 241.357 52.7519C241.383 52.6738 241.424 52.6015 241.478 52.5395L242.127 52.4437C243.433 52.2342 243.469 51.9169 243.469 49.3879L243.466 43.2283Z" fill="black"/>
<path d="M255.165 43.2283C255.165 41.8575 255.165 41.6809 254.213 41.0494L253.898 40.8369C253.826 40.7453 253.79 40.631 253.796 40.515C253.802 40.3989 253.85 40.289 253.931 40.2053C255.158 39.7184 256.348 39.1432 257.491 38.4844C257.668 38.5173 257.773 38.5891 257.773 38.7298V40.771C257.773 40.9476 257.809 41.0524 257.881 41.0883C259.115 40.0677 260.454 38.9782 261.757 38.9782C262.64 38.9782 263.345 39.5409 263.345 40.3849C263.353 40.5905 263.32 40.7955 263.247 40.9882C263.175 41.1808 263.066 41.3574 262.925 41.5076C262.784 41.6578 262.614 41.7788 262.426 41.8635C262.238 41.9482 262.035 41.995 261.829 42.0011C261.551 42.0006 261.28 41.9149 261.052 41.7557C260.602 41.4213 260.063 41.2257 259.503 41.193C259.25 41.1986 259.002 41.2656 258.78 41.3881C258.559 41.5107 258.371 41.6851 258.233 41.8964C257.881 42.3872 257.773 43.4079 257.773 44.5901V49.3789C257.773 51.908 257.845 52.33 259.184 52.4347L260.454 52.5395C260.508 52.6015 260.55 52.6738 260.575 52.7519C260.601 52.8301 260.611 52.9126 260.604 52.9946C260.598 53.0766 260.575 53.1564 260.536 53.2294C260.498 53.3024 260.446 53.367 260.382 53.4194C258.725 53.3476 257.704 53.3147 256.479 53.3147C255.255 53.3147 254.153 53.3476 253.237 53.4194C252.988 53.3147 252.919 52.7161 253.165 52.5395L253.835 52.4437C255.141 52.2342 255.174 51.9169 255.174 49.3879L255.165 43.2283Z" fill="black"/>
<path d="M266.867 43.2278C266.867 41.8571 266.867 41.6805 265.916 41.0489L265.6 40.8364C265.529 40.7449 265.492 40.6306 265.498 40.5145C265.505 40.3985 265.552 40.2885 265.633 40.2049C266.89 39.7324 268.105 39.1568 269.266 38.4839C269.443 38.4839 269.584 38.5528 269.617 38.6935C269.548 39.9236 269.476 41.6116 269.476 43.0513V49.3785C269.476 51.9075 269.548 52.2607 270.815 52.4343L271.557 52.5391C271.803 52.7157 271.734 53.3142 271.488 53.419C270.428 53.3472 269.407 53.3143 268.185 53.3143C266.963 53.3143 265.859 53.3472 264.883 53.419C264.819 53.3666 264.767 53.3019 264.729 53.2288C264.69 53.1557 264.667 53.0758 264.661 52.9936C264.655 52.9115 264.665 52.829 264.691 52.7509C264.717 52.6728 264.759 52.6007 264.814 52.5391L265.543 52.4433C266.849 52.2697 266.882 51.9165 266.882 49.3874L266.867 43.2278ZM269.746 31.8395C269.746 33.0696 268.867 33.6353 267.915 33.6353C267.681 33.6485 267.447 33.6135 267.228 33.5327C267.008 33.4518 266.808 33.3268 266.639 33.1654C266.47 33.0039 266.336 32.8096 266.246 32.5943C266.155 32.3791 266.11 32.1476 266.114 31.9143C266.107 31.6648 266.152 31.4165 266.245 31.185C266.339 30.9535 266.48 30.7437 266.658 30.5688C266.837 30.3938 267.05 30.2574 267.283 30.1681C267.517 30.0788 267.767 30.0385 268.017 30.0497C268.251 30.0456 268.483 30.0897 268.699 30.179C268.915 30.2684 269.11 30.4012 269.273 30.5692C269.435 30.7371 269.561 30.9366 269.642 31.1551C269.724 31.3737 269.759 31.6067 269.746 31.8395Z" fill="black"/>
<path d="M280.827 46.0381C281.355 45.8615 281.391 45.5472 281.427 45.0205L281.463 43.4042C281.499 42.1023 281.076 40.3454 278.891 40.3454C277.903 40.3454 276.705 40.8363 276.636 41.9257C276.6 42.4884 276.564 42.9104 276.282 43.1229C275.689 43.5299 274.993 43.7613 274.273 43.7903C274.207 43.798 274.139 43.7905 274.075 43.7684C274.012 43.7462 273.954 43.7101 273.906 43.6626C273.859 43.6151 273.822 43.5576 273.8 43.4942C273.778 43.4308 273.77 43.3632 273.778 43.2965C273.778 41.4708 277.762 38.9746 280.335 38.9746C282.907 38.9746 284.108 40.4502 284.003 43.087L283.79 49.2017C283.721 50.8179 284.036 52.2605 285.411 52.2605C285.718 52.2566 286.019 52.184 286.294 52.048C286.471 51.9433 286.645 51.8026 286.75 51.8026C286.855 51.8026 286.999 52.0121 286.999 52.2605C286.999 52.4341 285.765 53.8049 284.036 53.8049C283.596 53.8147 283.159 53.7213 282.761 53.532C282.363 53.3428 282.015 53.0631 281.746 52.7155C281.605 52.506 281.394 52.2246 281.181 52.2246C280.968 52.2246 280.512 52.5239 279.806 52.928C279.032 53.347 278.257 53.8049 277.27 53.8049C276.375 53.8468 275.497 53.5592 274.802 52.9968C274.456 52.6866 274.18 52.307 273.992 51.8831C273.803 51.4591 273.707 51.0002 273.709 50.5366C273.709 49.1658 274.378 48.3577 276.636 47.5436L280.827 46.0381ZM278.641 52.2246C279.43 52.1518 280.179 51.8454 280.791 51.3447C281.214 50.9227 281.25 50.4318 281.25 49.6925L281.319 47.6214C281.319 47.2323 281.178 47.1635 280.968 47.1635C280.474 47.2264 279.989 47.3438 279.521 47.5136C277.444 48.217 276.42 48.7438 276.42 50.1145C276.421 50.4003 276.48 50.6829 276.593 50.9454C276.706 51.2079 276.872 51.4448 277.079 51.642C277.287 51.8391 277.532 51.9923 277.801 52.0924C278.069 52.1926 278.355 52.2375 278.641 52.2246Z" fill="black"/>
<defs>
<linearGradient id="paint0_linear_444_2176" x1="15.0958" y1="7.04641" x2="4.62324" y2="12.6499" gradientUnits="userSpaceOnUse">
<stop stop-color="#E42E39"/>
<stop offset="0.013024" stop-color="#E42E39"/>
<stop offset="0.2585" stop-color="#D22930"/>
<stop offset="0.74" stop-color="#A71D1B"/>
<stop offset="0.9874" stop-color="#901711"/>
<stop offset="1" stop-color="#901711"/>
</linearGradient>
<linearGradient id="paint1_linear_444_2176" x1="-0.13861" y1="46.6085" x2="13.1497" y2="32.2009" gradientUnits="userSpaceOnUse">
<stop stop-color="#901711"/>
<stop offset="0.012615" stop-color="#901711"/>
<stop offset="0.26" stop-color="#A71D1B"/>
<stop offset="0.7415" stop-color="#D22930"/>
<stop offset="0.987" stop-color="#E42E39"/>
<stop offset="1" stop-color="#E42E39"/>
</linearGradient>
<linearGradient id="paint2_linear_444_2176" x1="7.57057" y1="29.3352" x2="26.1965" y2="21.8459" gradientUnits="userSpaceOnUse">
<stop stop-color="#901711"/>
<stop offset="0.012615" stop-color="#901711"/>
<stop offset="0.26" stop-color="#A71D1B"/>
<stop offset="0.7415" stop-color="#D22930"/>
<stop offset="0.987" stop-color="#E42E39"/>
<stop offset="1" stop-color="#E42E39"/>
</linearGradient>
</defs>
</svg>
